<svg xmlns="http://www.w3.org/2000/svg" width="1200" height="900" viewBox="0 0 1200 900" role="img" aria-labelledby="title desc">
  <title id="title">Hair Bundles</title>
  <desc id="desc">Soft full bundles</desc>
  <defs>
    <linearGradient id="bg" x1="0" y1="0" x2="1" y2="1">
      <stop offset="0%" stop-color="#fff5fa"/>
      <stop offset="100%" stop-color="#fecdd3"/>
    </linearGradient>
    <linearGradient id="hair" x1="0" y1="0" x2="1" y2="1">
      <stop offset="0%" stop-color="#2b1020"/>
      <stop offset="100%" stop-color="#6d183d"/>
    </linearGradient>
    <filter id="shadow" x="-20%" y="-20%" width="140%" height="140%">
      <feDropShadow dx="0" dy="24" stdDeviation="24" flood-color="#831843" flood-opacity="0.22"/>
    </filter>
  </defs>
  <rect width="1200" height="900" rx="78" fill="url(#bg)"/>
  <circle cx="1040" cy="130" r="130" fill="#ffffff" opacity="0.17"/>
  <circle cx="170" cy="760" r="185" fill="#ffffff" opacity="0.14"/>
  <rect x="120" y="110" width="960" height="680" rx="54" fill="#fff8fb" opacity="0.92" filter="url(#shadow)"/>
  <g transform="translate(0 10)"><path d="M360 300 C470 230 570 250 650 330 C730 410 825 420 880 350" fill="none" stroke="url(#hair)" stroke-width="54" stroke-linecap="round"/>
  <path d="M350 405 C470 335 585 355 670 435 C745 505 825 520 900 465" fill="none" stroke="url(#hair)" stroke-width="48" stroke-linecap="round"/>
  <path d="M340 510 C480 445 600 465 700 535 C775 590 855 602 925 548" fill="none" stroke="url(#hair)" stroke-width="42" stroke-linecap="round"/>
  <rect x="328" y="250" width="92" height="340" rx="34" fill="#f9a8d4" opacity="0.92"/></g>
  <text x="600" y="640" text-anchor="middle" font-family="Georgia, 'Times New Roman', serif" font-size="68" font-weight="700" fill="#831843">Hair Bundles</text>
  <text x="600" y="698" text-anchor="middle" font-family="Arial, sans-serif" font-size="30" font-weight="700" fill="#be185d">Soft full bundles</text>
  <text x="600" y="748" text-anchor="middle" font-family="Arial, sans-serif" font-size="22" fill="#746270">Client-ready placeholder visual</text>
</svg>