<svg xmlns="http://www.w3.org/2000/svg" width="1200" height="900" viewBox="0 0 1200 900" role="img" aria-labelledby="title desc">
  <title id="title">Closures</title>
  <desc id="desc">Natural polished finish</desc>
  <defs>
    <linearGradient id="bg" x1="0" y1="0" x2="1" y2="1">
      <stop offset="0%" stop-color="#fff5fa"/>
      <stop offset="100%" stop-color="#ffe4e6"/>
    </linearGradient>
    <linearGradient id="hair" x1="0" y1="0" x2="1" y2="1">
      <stop offset="0%" stop-color="#2b1020"/>
      <stop offset="100%" stop-color="#6d183d"/>
    </linearGradient>
    <filter id="shadow" x="-20%" y="-20%" width="140%" height="140%">
      <feDropShadow dx="0" dy="24" stdDeviation="24" flood-color="#831843" flood-opacity="0.22"/>
    </filter>
  </defs>
  <rect width="1200" height="900" rx="78" fill="url(#bg)"/>
  <circle cx="1040" cy="130" r="130" fill="#ffffff" opacity="0.17"/>
  <circle cx="170" cy="760" r="185" fill="#ffffff" opacity="0.14"/>
  <rect x="120" y="110" width="960" height="680" rx="54" fill="#fff8fb" opacity="0.92" filter="url(#shadow)"/>
  <ellipse cx="600" cy="390" rx="235" ry="165" fill="url(#hair)"/>
  <path d="M600 230 C545 340 552 470 600 560" stroke="#f9a8d4" stroke-width="15" fill="none" stroke-linecap="round" opacity="0.62"/>
  <path d="M510 275 C470 365 485 470 535 535" stroke="#fff1f7" stroke-width="10" fill="none" stroke-linecap="round" opacity="0.48"/>
  <path d="M690 275 C730 365 715 470 665 535" stroke="#fff1f7" stroke-width="10" fill="none" stroke-linecap="round" opacity="0.48"/>
  <text x="600" y="640" text-anchor="middle" font-family="Georgia, 'Times New Roman', serif" font-size="68" font-weight="700" fill="#831843">Closures</text>
  <text x="600" y="698" text-anchor="middle" font-family="Arial, sans-serif" font-size="30" font-weight="700" fill="#be185d">Natural polished finish</text>
  <text x="600" y="748" text-anchor="middle" font-family="Arial, sans-serif" font-size="22" fill="#746270">Client-ready placeholder visual</text>
</svg>