<svg xmlns="http://www.w3.org/2000/svg" width="1200" height="900" viewBox="0 0 1200 900" role="img" aria-labelledby="title desc">
  <title id="title">Lace Frontals</title>
  <desc id="desc">Seamless lace pieces</desc>
  <defs>
    <linearGradient id="bg" x1="0" y1="0" x2="1" y2="1">
      <stop offset="0%" stop-color="#fff5fa"/>
      <stop offset="100%" stop-color="#fbcfe8"/>
    </linearGradient>
    <linearGradient id="hair" x1="0" y1="0" x2="1" y2="1">
      <stop offset="0%" stop-color="#2b1020"/>
      <stop offset="100%" stop-color="#6d183d"/>
    </linearGradient>
    <filter id="shadow" x="-20%" y="-20%" width="140%" height="140%">
      <feDropShadow dx="0" dy="24" stdDeviation="24" flood-color="#831843" flood-opacity="0.22"/>
    </filter>
  </defs>
  <rect width="1200" height="900" rx="78" fill="url(#bg)"/>
  <circle cx="1040" cy="130" r="130" fill="#ffffff" opacity="0.17"/>
  <circle cx="170" cy="760" r="185" fill="#ffffff" opacity="0.14"/>
  <rect x="120" y="110" width="960" height="680" rx="54" fill="#fff8fb" opacity="0.92" filter="url(#shadow)"/>
  <path d="M360 410 C380 270 470 190 600 190 C730 190 820 270 840 410 L805 520 C750 455 690 430 600 430 C510 430 450 455 395 520 Z" fill="url(#hair)"/>
  <path d="M395 520 C475 485 520 470 600 470 C680 470 725 485 805 520" fill="none" stroke="#f9a8d4" stroke-width="16" stroke-linecap="round" opacity="0.65"/>
  <path d="M410 408 C525 356 678 356 790 408" fill="none" stroke="#fff1f7" stroke-width="10" stroke-linecap="round" opacity="0.5"/>
  <text x="600" y="640" text-anchor="middle" font-family="Georgia, 'Times New Roman', serif" font-size="68" font-weight="700" fill="#831843">Lace Frontals</text>
  <text x="600" y="698" text-anchor="middle" font-family="Arial, sans-serif" font-size="30" font-weight="700" fill="#be185d">Seamless lace pieces</text>
  <text x="600" y="748" text-anchor="middle" font-family="Arial, sans-serif" font-size="22" fill="#746270">Client-ready placeholder visual</text>
</svg>