<svg xmlns="http://www.w3.org/2000/svg" width="1200" height="900" viewBox="0 0 1200 900" role="img" aria-labelledby="title desc">
  <title id="title">Hair Care Essentials</title>
  <desc id="desc">Nourish and maintain</desc>
  <defs>
    <linearGradient id="bg" x1="0" y1="0" x2="1" y2="1">
      <stop offset="0%" stop-color="#fff5fa"/>
      <stop offset="100%" stop-color="#fdf2f8"/>
    </linearGradient>
    <linearGradient id="hair" x1="0" y1="0" x2="1" y2="1">
      <stop offset="0%" stop-color="#2b1020"/>
      <stop offset="100%" stop-color="#6d183d"/>
    </linearGradient>
    <filter id="shadow" x="-20%" y="-20%" width="140%" height="140%">
      <feDropShadow dx="0" dy="24" stdDeviation="24" flood-color="#831843" flood-opacity="0.22"/>
    </filter>
  </defs>
  <rect width="1200" height="900" rx="78" fill="url(#bg)"/>
  <circle cx="1040" cy="130" r="130" fill="#ffffff" opacity="0.17"/>
  <circle cx="170" cy="760" r="185" fill="#ffffff" opacity="0.14"/>
  <rect x="120" y="110" width="960" height="680" rx="54" fill="#fff8fb" opacity="0.92" filter="url(#shadow)"/>
  <rect x="445" y="245" width="135" height="315" rx="34" fill="#be185d"/>
  <rect x="475" y="195" width="75" height="70" rx="20" fill="#831843"/>
  <rect x="620" y="270" width="145" height="290" rx="42" fill="#ec4899"/>
  <rect x="650" y="225" width="85" height="66" rx="18" fill="#be185d"/>
  <path d="M485 390 C530 360 560 360 610 392" fill="none" stroke="#fff1f7" stroke-width="12" stroke-linecap="round" opacity="0.75"/>
  <text x="513" y="470" text-anchor="middle" font-family="Arial, sans-serif" font-size="30" font-weight="700" fill="#fff">CARE</text>
  <text x="693" y="455" text-anchor="middle" font-family="Arial, sans-serif" font-size="28" font-weight="700" fill="#fff">GLOW</text>
  <text x="600" y="640" text-anchor="middle" font-family="Georgia, 'Times New Roman', serif" font-size="68" font-weight="700" fill="#831843">Hair Care Essentials</text>
  <text x="600" y="698" text-anchor="middle" font-family="Arial, sans-serif" font-size="30" font-weight="700" fill="#be185d">Nourish and maintain</text>
  <text x="600" y="748" text-anchor="middle" font-family="Arial, sans-serif" font-size="22" fill="#746270">Client-ready placeholder visual</text>
</svg>