<svg xmlns="http://www.w3.org/2000/svg" width="1200" height="900" viewBox="0 0 1200 900" role="img" aria-labelledby="title desc">
  <title id="title">Chrisy Hair Studio</title>
  <desc id="desc">Signature hair look</desc>
  <defs>
    <linearGradient id="bg" x1="0" y1="0" x2="1" y2="1">
      <stop offset="0%" stop-color="#fff5fa"/>
      <stop offset="100%" stop-color="#f9a8d4"/>
    </linearGradient>
    <linearGradient id="hair" x1="0" y1="0" x2="1" y2="1">
      <stop offset="0%" stop-color="#2b1020"/>
      <stop offset="100%" stop-color="#6d183d"/>
    </linearGradient>
    <filter id="shadow" x="-20%" y="-20%" width="140%" height="140%">
      <feDropShadow dx="0" dy="24" stdDeviation="24" flood-color="#831843" flood-opacity="0.22"/>
    </filter>
  </defs>
  <rect width="1200" height="900" rx="78" fill="url(#bg)"/>
  <circle cx="1040" cy="130" r="130" fill="#ffffff" opacity="0.17"/>
  <circle cx="170" cy="760" r="185" fill="#ffffff" opacity="0.14"/>
  <rect x="120" y="110" width="960" height="680" rx="54" fill="#fff8fb" opacity="0.92" filter="url(#shadow)"/>
  <path d="M420 470 C315 410 320 225 470 175 C625 125 805 210 818 380 C830 550 685 620 552 578 C505 563 465 537 420 470Z" fill="url(#hair)"/>
  <path d="M470 180 C430 275 445 435 510 565" fill="none" stroke="#f9a8d4" stroke-width="18" stroke-linecap="round" opacity="0.65"/>
  <path d="M565 155 C500 290 520 455 620 590" fill="none" stroke="#fbcfe8" stroke-width="14" stroke-linecap="round" opacity="0.55"/>
  <path d="M675 185 C605 305 625 455 720 555" fill="none" stroke="#fdf2f8" stroke-width="12" stroke-linecap="round" opacity="0.5"/>
  <circle cx="600" cy="315" r="82" fill="#ffd1e5" opacity="0.92"/>
  <path d="M560 330 C600 365 660 340 665 292" fill="none" stroke="#831843" stroke-width="10" stroke-linecap="round" opacity="0.45"/>
  <text x="600" y="640" text-anchor="middle" font-family="Georgia, 'Times New Roman', serif" font-size="68" font-weight="700" fill="#831843">Chrisy Hair Studio</text>
  <text x="600" y="698" text-anchor="middle" font-family="Arial, sans-serif" font-size="30" font-weight="700" fill="#be185d">Signature hair look</text>
  <text x="600" y="748" text-anchor="middle" font-family="Arial, sans-serif" font-size="22" fill="#746270">Branded visual placeholder - replace with real model photo</text>
</svg>