<svg xmlns="http://www.w3.org/2000/svg" width="1200" height="900" viewBox="0 0 1200 900" role="img" aria-labelledby="title desc">
  <title id="title">Premium Wigs</title>
  <desc id="desc">Ready-to-wear styles</desc>
  <defs>
    <linearGradient id="bg" x1="0" y1="0" x2="1" y2="1">
      <stop offset="0%" stop-color="#fff5fa"/>
      <stop offset="100%" stop-color="#f9a8d4"/>
    </linearGradient>
    <linearGradient id="hair" x1="0" y1="0" x2="1" y2="1">
      <stop offset="0%" stop-color="#2b1020"/>
      <stop offset="100%" stop-color="#6d183d"/>
    </linearGradient>
    <filter id="shadow" x="-20%" y="-20%" width="140%" height="140%">
      <feDropShadow dx="0" dy="24" stdDeviation="24" flood-color="#831843" flood-opacity="0.22"/>
    </filter>
  </defs>
  <rect width="1200" height="900" rx="78" fill="url(#bg)"/>
  <circle cx="1040" cy="130" r="130" fill="#ffffff" opacity="0.17"/>
  <circle cx="170" cy="760" r="185" fill="#ffffff" opacity="0.14"/>
  <rect x="120" y="110" width="960" height="680" rx="54" fill="#fff8fb" opacity="0.92" filter="url(#shadow)"/>
  <path d="M410 505 C365 345 440 205 600 205 C760 205 835 345 790 505 C760 612 440 612 410 505Z" fill="url(#hair)"/>
  <path d="M470 250 C430 350 455 470 505 560" stroke="#f9a8d4" stroke-width="15" fill="none" stroke-linecap="round" opacity="0.55"/>
  <path d="M600 215 C555 330 565 470 610 585" stroke="#fff1f7" stroke-width="12" fill="none" stroke-linecap="round" opacity="0.52"/>
  <path d="M720 250 C775 370 720 500 682 562" stroke="#fbcfe8" stroke-width="14" fill="none" stroke-linecap="round" opacity="0.55"/>
  <text x="600" y="640" text-anchor="middle" font-family="Georgia, 'Times New Roman', serif" font-size="68" font-weight="700" fill="#831843">Premium Wigs</text>
  <text x="600" y="698" text-anchor="middle" font-family="Arial, sans-serif" font-size="30" font-weight="700" fill="#be185d">Ready-to-wear styles</text>
  <text x="600" y="748" text-anchor="middle" font-family="Arial, sans-serif" font-size="22" fill="#746270">Client-ready placeholder visual</text>
</svg>